<svg xmlns="http://www.w3.org/2000/svg" xmlns:xlink="http://www.w3.org/1999/xlink" width="930" height="70" viewBox="0 0 930 70">
    <defs>
        <rect id="a" width="930" height="70" rx="4"/>
        <linearGradient id="c" x1="149.293%" x2="32.87%" y1="38.577%" y2="32.756%">
            <stop offset="0%" stop-color="#A26AFF"/>
            <stop offset="100%" stop-color="#D294FF" stop-opacity="0"/>
        </linearGradient>
    </defs>
    <g fill="none" fill-rule="evenodd">
        <mask id="b" fill="#fff">
            <use xlink:href="#a"/>
        </mask>
        <use fill="#433372" xlink:href="#a"/>
        <path fill="#0071BC" d="M913.68-59.27L850.75.21a20.11 20.11 0 0 0 9.93 34.35l49.32 9.7L959.33 54a20.11 20.11 0 0 0 22.2-28l-35.72-78.95a20.1 20.1 0 0 0-32.13-6.32z" mask="url(#b)" opacity=".5" style="mix-blend-mode:multiply"/>
        <path stroke="#F7931E" stroke-width="2.17" d="M31.9 57.88l25.39-54a13.84 13.84 0 0 0-15-19.52L8.23-9.42l-34.07 6.18A13.85 13.85 0 0 0-33 20.31l42.71 41.6a13.85 13.85 0 0 0 22.19-4.03z" mask="url(#b)" opacity=".5"/>
        <path fill="#7769A3" d="M22.6 2.46L-4.26 9.07a6.43 6.43 0 0 0-2.65 11.11L5.27 30.65l12.17 10.47A6.43 6.43 0 0 0 28 36.83l2.54-27.55a6.42 6.42 0 0 0-7.94-6.82z" mask="url(#b)" opacity=".5" style="mix-blend-mode:screen"/>
        <path fill="#0071BC" d="M576.8-31.57L500.85 8.21a19.92 19.92 0 0 0 .23 35.41l44.41 22.5 44.4 22.49a19.91 19.91 0 0 0 28.69-20.75l-12.85-84.77a19.92 19.92 0 0 0-28.93-14.66z" mask="url(#b)" opacity=".5" style="mix-blend-mode:multiply"/>
        <circle cx="620.36" cy="65.83" r="60.04" fill="url(#c)" mask="url(#b)" opacity=".5" style="mix-blend-mode:screen"/>
        <path stroke="#F7931E" stroke-width="2" d="M577.09 82.31l37.11-67a17.78 17.78 0 0 0-17.57-26.28l-44.15 5-44.16 5a17.78 17.78 0 0 0-11.21 29.56l51.21 56.9a17.78 17.78 0 0 0 28.77-3.18z" mask="url(#b)" opacity=".5"/>
        <path stroke="#FFF" stroke-width="1.27" d="M680.92 11.26l-8.66 1.66a2 2 0 0 0-1 3.49l3.7 3.54 3.71 3.53a2 2 0 0 0 3.44-1.19l1.25-8.73a2 2 0 0 0-2.44-2.3zM661.021 57.48l1 5.25a1.24 1.24 0 0 0 2.12.62l2.15-2.25 2.14-2.24a1.25 1.25 0 0 0-.74-2.09l-5.29-.76a1.25 1.25 0 0 0-1.38 1.47zM206.95 52.624l-3.68 5.1a1.47 1.47 0 0 0 1.18 2.32h7.3a1.46 1.46 0 0 0 1.2-2.3l-3.62-5.14a1.46 1.46 0 0 0-2.38.02z" mask="url(#b)" opacity=".5"/>
        <circle cx="339.77" cy="60.77" r="1.77" stroke="#FFF" stroke-width=".51" mask="url(#b)" opacity=".5"/>
        <circle cx="181.5" cy="13.5" r="2.5" stroke="#FFF" stroke-width="1.02" mask="url(#b)" opacity=".5"/>
        <circle cx="459.64" cy="13.64" r="2.64" stroke="#FFF" stroke-width=".51" mask="url(#b)" opacity=".5"/>
        <circle cx="416.69" cy="34.36" r="2.64" stroke="#FFF" stroke-width=".51" mask="url(#b)" opacity=".5"/>
        <circle cx="911.39" cy="26.1" r="2.14" stroke="#FFF" stroke-width=".51" mask="url(#b)" opacity=".5"/>
    </g>
</svg>
